HIERARCHY
ROOT SpineBase
{
  OFFSET 0.000000 0.000000 0.000000
  CHANNELS 6 Xposition Yposition Zposition Zrotation Xrotation Yrotation
  JOINT SpineMid
  {
    OFFSET 0.000000 22.882846 0.000000
    CHANNELS 3 Zrotation Xrotation Yrotation
    JOINT SpineShoulder
    {
      OFFSET -0.086985 17.001806 -0.427426
      CHANNELS 3 Zrotation Xrotation Yrotation
      JOINT Neck
      {
        OFFSET -0.081353 5.653031 -0.344079
        CHANNELS 3 Zrotation Xrotation Yrotation
        JOINT Head
        {
          OFFSET 0.959303 9.173045 -0.284698
          CHANNELS 3 Zrotation Xrotation Yrotation
          End Site
          {
            OFFSET 0 0 0
          }
        }
      }
      JOINT ShoulderLeft
      {
        OFFSET -11.112417 -0.409519 2.690177
        CHANNELS 3 Zrotation Xrotation Yrotation
        JOINT ElbowLeft
        {
          OFFSET -2.371188 -17.680886 -3.602692
          CHANNELS 3 Zrotation Xrotation Yrotation
          JOINT WristLeft
          {
            OFFSET -0.887217 -17.510759 -3.856768
            CHANNELS 3 Zrotation Xrotation Yrotation
            JOINT HandLeft
            {
              OFFSET 0.504715 -4.893009 -0.722343
              CHANNELS 3 Zrotation Xrotation Yrotation
              JOINT HandTipLeft
              {
                OFFSET -0.967222 -6.577813 -0.967523
                CHANNELS 3 Zrotation Xrotation Yrotation
                End Site
                {
                  OFFSET 0 0 0
                }
              }
              JOINT ThumbLeft
              {
                OFFSET 1.728137 -1.840805 -1.766314
                CHANNELS 3 Zrotation Xrotation Yrotation
                End Site
                {
                  OFFSET 0 0 0
                }
              }
            }
          }
        }
      }
      JOINT ShoulderRight
      {
        OFFSET 12.678686 -5.306987 -4.671476
        CHANNELS 3 Zrotation Xrotation Yrotation
        JOINT ElbowRight
        {
          OFFSET 0.945041 -17.888437 -2.119457
          CHANNELS 3 Zrotation Xrotation Yrotation
          JOINT WristRight
          {
            OFFSET -3.227035 -17.430294 -4.042833
            CHANNELS 3 Zrotation Xrotation Yrotation
            JOINT HandRight
            {
              OFFSET 0.436374 -6.566160 -0.404807
              CHANNELS 3 Zrotation Xrotation Yrotation
              JOINT HandTipRight
              {
                OFFSET -2.067400 -5.223099 -1.559497
                CHANNELS 3 Zrotation Xrotation Yrotation
                End Site
                {
                  OFFSET 0 0 0
                }
              }
              JOINT ThumbRight
              {
                OFFSET -2.622713 -2.092572 -1.992625
                CHANNELS 3 Zrotation Xrotation Yrotation
                End Site
                {
                  OFFSET 0 0 0
                }
              }
            }
          }
        }
      }
    }
  }
  JOINT HipLeft
  {
    OFFSET -3.965271 0.795610 -1.376937
    CHANNELS 3 Zrotation Xrotation Yrotation
    JOINT KneeLeft
    {
      OFFSET -2.228542 -26.984044 3.442896
      CHANNELS 3 Zrotation Xrotation Yrotation
      JOINT AnkleLeft
      {
        OFFSET -5.881102 -25.433030 14.003210
        CHANNELS 3 Zrotation Xrotation Yrotation
        JOINT FootLeft
        {
          OFFSET -2.599611 -3.249029 -8.851021
          CHANNELS 3 Zrotation Xrotation Yrotation
          End Site
          {
            OFFSET 0 0 0
          }
        }
      }
    }
  }
  JOINT HipRight
  {
    OFFSET 2.837318 0.067685 -3.527038
    CHANNELS 3 Zrotation Xrotation Yrotation
    JOINT KneeRight
    {
      OFFSET 0.280226 -27.623899 -0.187378
      CHANNELS 3 Zrotation Xrotation Yrotation
      JOINT AnkleRight
      {
        OFFSET 1.237572 -25.139634 11.079466
        CHANNELS 3 Zrotation Xrotation Yrotation
        JOINT FootRight
        {
          OFFSET -2.699555 -3.235450 -8.824965
          CHANNELS 3 Zrotation Xrotation Yrotation
          End Site
          {
            OFFSET 0 0 0
          }
        }
      }
    }
  }
}
MOTION
Frames: 14
Frame Time: 0.033333
95.351535 65.689884 389.146602 1.519406 -0.527591 9.344867 -0.078767 -0.199335 -9.301742 -0.112486 -0.149096 0.039294 1.286013 3.743912 -0.384572 0.000000 0.000000 0.000000 2.145707 2.834488 -1.149674 -16.977431 -9.268454 2.957127 12.983574 -1.389850 -4.855358 -6.542248 9.924930 2.417381 0.000000 0.000000 0.000000 0.000000 0.000000 0.000000 2.501784 -2.526581 -0.643870 -1.088188 -1.210905 0.917837 -24.843611 8.204731 4.045352 27.102616 -0.273813 -3.850784 0.000000 0.000000 0.000000 0.000000 0.000000 0.000000 6.859214 4.018753 -9.072165 2.865555 -2.421408 5.204732 -6.180249 -30.958680 15.564022 0.000000 0.000000 0.000000 -10.534452 0.573729 -9.177328 10.532970 2.869740 0.513584 0.224720 -1.055040 -5.807161 0.000000 0.000000 0.000000
95.752423 65.406222 389.041941 1.519144 -0.521895 7.113806 -0.150722 -0.214823 -7.072300 -0.179468 -0.191855 0.032392 3.360534 4.034047 -0.432712 0.000000 0.000000 0.000000 2.910709 1.906952 -1.126513 -21.108271 -10.741073 3.478176 12.325397 1.294823 -5.198541 1.723630 7.029719 0.623698 0.000000 0.000000 0.000000 0.000000 0.000000 0.000000 2.258154 -2.391572 -0.596023 -0.638285 -1.376042 0.862525 -24.297279 8.374615 3.990232 26.607896 0.790619 -4.337910 0.000000 0.000000 0.000000 0.000000 0.000000 0.000000 7.482226 4.652774 -6.858835 5.203361 -1.531685 6.741358 -9.293768 -34.253311 14.884652 0.000000 0.000000 0.000000 -12.146563 -0.598652 -7.043319 12.685294 4.109808 0.639794 -0.048603 -1.351214 -7.183329 0.000000 0.000000 0.000000
96.186432 65.196578 388.954452 1.610344 -0.575104 4.894047 -0.153133 -0.261941 -4.848953 -0.134981 -0.228402 0.037143 4.801326 4.378063 -0.504552 0.000000 0.000000 0.000000 3.180805 1.103549 -1.071329 -24.572558 -11.873077 3.924729 13.916758 4.005273 -5.767650 5.739168 3.332658 -0.036630 0.000000 0.000000 0.000000 0.000000 0.000000 0.000000 2.061516 -2.507976 -0.605922 -0.457572 -1.102699 0.826213 -24.226136 8.054271 3.907447 26.280919 1.352510 -4.464644 0.000000 0.000000 0.000000 0.000000 0.000000 0.000000 7.039505 4.809601 -4.636744 7.649547 0.127943 7.710126 -13.162151 -33.126791 10.199349 0.000000 0.000000 0.000000 -13.521356 -1.741237 -4.939857 14.448073 5.130877 0.680964 -0.272441 -1.546772 -8.190575 0.000000 0.000000 0.000000
96.609162 65.056816 388.911465 1.860781 -0.684248 2.918209 -0.102050 -0.258167 -2.862836 0.026339 -0.233004 0.056148 5.120760 4.397284 -0.536946 0.000000 0.000000 0.000000 3.068230 0.543487 -1.060904 -26.899916 -12.510650 4.255822 15.281354 3.897941 -6.538455 9.876748 -0.792252 -0.095262 0.000000 0.000000 0.000000 0.000000 0.000000 0.000000 1.520782 -2.840196 -0.633695 -0.114838 -0.635636 0.751442 -24.284389 7.143351 3.714909 26.041391 1.796871 -4.430807 0.000000 0.000000 0.000000 0.000000 0.000000 0.000000 6.833390 4.495974 -2.552546 7.435834 1.758028 7.140955 -14.715499 -27.359356 3.501880 0.000000 0.000000 0.000000 -15.355045 -3.469650 -3.174016 16.967283 6.915141 0.712590 -1.075714 -1.870397 -8.948877 0.000000 0.000000 0.000000
96.994298 65.039205 388.932978 2.213286 -0.868587 1.439025 -0.065220 -0.184535 -1.369590 0.183785 -0.273590 0.078168 4.817383 4.386004 -0.555282 0.000000 0.000000 0.000000 2.718431 0.385611 -1.083605 -28.740606 -12.748302 4.514580 14.654463 3.752802 -6.577932 11.384395 -4.336367 0.252125 0.000000 0.000000 0.000000 0.000000 0.000000 0.000000 1.142132 -3.263281 -0.694915 -0.125644 0.044143 0.725331 -23.604759 5.811216 3.293173 25.308467 3.250134 -4.743440 0.000000 0.000000 0.000000 0.000000 0.000000 0.000000 4.149134 3.799723 -1.114172 9.061997 3.771733 6.497690 -14.795334 -17.944098 -4.788710 0.000000 0.000000 0.000000 -15.714751 -2.942311 -1.595453 16.709464 6.047210 0.698742 -0.671336 -1.774244 -8.826254 0.000000 0.000000 0.000000
97.313824 65.113907 388.966329 2.646057 -1.181887 0.206692 -0.011380 -0.172298 -0.116024 0.338903 -0.347971 0.102080 3.859294 4.890886 -0.631918 0.000000 0.000000 0.000000 2.064862 0.852425 -1.145383 -29.312001 -12.613198 4.584564 14.306221 3.971819 -6.380012 9.811081 -6.406485 0.725001 0.000000 0.000000 0.000000 0.000000 0.000000 0.000000 0.840632 -3.246290 -0.777908 -0.640189 0.634095 0.785467 -23.255094 5.990409 3.272694 24.434195 3.504831 -4.710389 0.000000 0.000000 0.000000 0.000000 0.000000 0.000000 0.066255 3.214712 -0.078810 14.986601 6.315618 7.562765 -16.629307 -7.423764 -14.679592 0.000000 0.000000 0.000000 -15.324234 -1.440418 -0.120403 14.942428 3.870501 0.576327 0.308795 -1.187536 -8.225041 0.000000 0.000000 0.000000
97.609911 65.207846 389.007349 3.258692 -1.600138 -0.470820 0.059414 -0.234252 0.596271 0.476425 -0.446566 0.130912 2.000479 5.819406 -0.726551 0.000000 0.000000 0.000000 1.112126 1.466406 -1.179289 -31.638185 -14.374676 4.529634 7.409922 3.664023 -5.098035 18.825342 -5.187462 -1.244666 0.000000 0.000000 0.000000 0.000000 0.000000 0.000000 -0.044108 -3.056157 -0.827378 -0.578272 1.249503 0.737722 -22.459843 5.105530 2.950726 23.918565 5.382653 -5.376872 0.000000 0.000000 0.000000 0.000000 0.000000 0.000000 -5.148015 2.330828 0.322713 22.777425 9.145669 8.938092 -19.345938 -4.318251 -19.567013 0.000000 0.000000 0.000000 -16.016850 -0.862168 0.704108 14.839725 3.538113 0.550879 0.584625 -1.310227 -8.311592 0.000000 0.000000 0.000000
97.932430 65.295971 389.081877 3.781291 -1.994121 -0.828096 0.094609 -0.304630 0.988203 0.564256 -0.486960 0.151450 0.866327 6.495785 -0.778287 0.000000 0.000000 0.000000 0.489669 1.952530 -1.222400 -31.591887 -14.224560 4.558459 4.846478 3.252633 -4.477497 20.752960 -5.746635 -1.637932 0.000000 0.000000 0.000000 0.000000 0.000000 0.000000 -0.509092 -3.245038 -0.895278 -0.548651 1.936880 0.725682 -22.326950 3.828338 2.660362 24.114407 6.838065 -5.842741 0.000000 0.000000 0.000000 0.000000 0.000000 0.000000 -11.293205 1.288400 0.259491 32.098394 11.886490 10.415806 -23.067642 -3.514797 -22.451019 0.000000 0.000000 0.000000 -16.289829 0.135290 1.254053 13.894304 2.744705 0.380026 1.331882 -1.324263 -8.128361 0.000000 0.000000 0.000000
98.146670 65.374132 389.173107 4.104748 -2.249038 -0.709635 0.062198 -0.198227 0.888398 0.517789 -0.414993 0.157077 0.540502 6.432408 -0.764603 0.000000 0.000000 0.000000 0.253769 2.031571 -1.236366 -30.174031 -12.610599 4.677126 3.500052 3.407778 -3.667577 20.847286 -9.595321 -1.265870 0.000000 0.000000 0.000000 0.000000 0.000000 0.000000 -0.552047 -3.925503 -0.942823 -0.508092 2.642637 0.714005 -22.823995 2.766483 2.511306 23.906263 7.633263 -5.745675 0.000000 0.000000 0.000000 0.000000 0.000000 0.000000 -16.464223 0.989358 -0.272402 39.852185 13.078832 11.950118 -26.997947 -5.325572 -21.966878 0.000000 0.000000 0.000000 -15.567744 1.441377 1.305512 11.439541 0.520686 -0.124596 2.664553 -0.113130 -7.324158 0.000000 0.000000 0.000000
98.181935 65.408338 389.264726 4.185672 -2.289941 -0.239869 -0.040521 0.004395 0.416645 0.353960 -0.265659 0.147597 0.930835 5.542128 -0.667423 0.000000 0.000000 0.000000 0.442296 1.751289 -1.227088 -29.966499 -11.340754 4.853641 -2.198879 -2.833174 -4.259871 26.731560 -9.570975 -2.507828 0.000000 0.000000 0.000000 0.000000 0.000000 0.000000 -0.194043 -4.992445 -0.961498 -0.586845 3.143107 0.787027 -23.003040 2.611560 2.500462 23.420501 7.179527 -5.241561 0.000000 0.000000 0.000000 0.000000 0.000000 0.000000 -20.672409 1.119250 -1.114945 46.661947 13.746293 13.579912 -29.933160 -4.046772 -23.130545 0.000000 0.000000 0.000000 -15.929124 0.823601 0.790586 12.136109 2.348192 0.011097 2.110323 -1.144609 -7.065913 0.000000 0.000000 0.000000
98.247544 65.417804 389.345034 4.152966 -2.247464 0.641448 -0.122380 0.106200 -0.470951 0.144812 -0.154760 0.133265 2.163242 4.693198 -0.580930 0.000000 0.000000 0.000000 0.766218 1.497464 -1.205885 -30.580294 -10.369188 5.097917 -7.134695 -13.216916 -7.834626 32.718915 11.684578 -7.387393 0.000000 0.000000 0.000000 0.000000 0.000000 0.000000 -0.450209 -5.743468 -0.899396 0.951954 3.286409 0.452241 -24.431967 3.167243 2.944612 23.707459 5.888142 -4.756292 0.000000 0.000000 0.000000 0.000000 0.000000 0.000000 -23.383958 1.805393 -2.182582 51.076903 13.896366 14.909024 -31.836366 -3.059405 -23.611624 0.000000 0.000000 0.000000 -15.888723 -0.714501 -0.266685 12.665113 4.696580 0.058255 1.398293 -1.721370 -6.803225 0.000000 0.000000 0.000000
98.329987 65.465340 389.416322 4.012053 -2.072494 1.762141 -0.268746 0.151054 -1.605190 -0.146859 -0.063629 0.110032 3.913176 4.430694 -0.574649 0.000000 0.000000 0.000000 1.343044 1.192648 -1.169183 -31.772498 -9.752591 5.375792 -13.538335 -16.764201 -9.381525 44.315544 24.128568 -14.146348 0.000000 0.000000 0.000000 0.000000 0.000000 0.000000 0.144325 -6.328685 -0.876634 1.351720 3.234478 0.393880 -25.357572 4.142347 3.357931 23.350719 4.882670 -4.250801 0.000000 0.000000 0.000000 0.000000 0.000000 0.000000 -25.262736 2.322072 -3.444939 54.329090 14.578535 15.547390 -33.311361 -2.788261 -23.965050 0.000000 0.000000 0.000000 -16.492356 -2.040863 -1.559462 14.010719 6.795937 0.107242 0.607377 -2.289182 -6.740515 0.000000 0.000000 0.000000
98.355981 65.577344 389.582375 3.734737 -1.876542 2.741819 -0.283117 0.230009 -2.604341 -0.292133 0.056072 0.093062 5.257948 4.353355 -0.593875 0.000000 0.000000 0.000000 1.782525 0.803799 -1.132571 -32.441928 -9.098079 5.594013 -13.934424 -11.594837 -6.606031 48.678231 30.533714 -16.185449 0.000000 0.000000 0.000000 0.000000 0.000000 0.000000 1.110666 -6.650458 -0.885660 1.019019 3.115925 0.440784 -25.195373 4.746826 3.502019 23.106188 2.604652 -3.479523 0.000000 0.000000 0.000000 0.000000 0.000000 0.000000 -25.640106 2.725145 -4.469301 56.452907 16.139914 15.667420 -35.305203 -3.401192 -24.419831 0.000000 0.000000 0.000000 -17.182119 -3.237758 -2.726172 15.765864 8.675770 0.179576 -0.449442 -2.787323 -6.700327 0.000000 0.000000 0.000000
98.347986 65.534820 389.820196 3.350604 -1.479117 3.461748 -0.285589 0.301772 -3.351657 -0.345085 0.129876 0.079068 6.514297 3.850750 -0.530607 0.000000 0.000000 0.000000 2.225319 0.266566 -1.085824 -33.564047 -6.905410 6.186339 -10.263881 -6.322412 -4.309668 45.155507 27.046940 -13.194188 0.000000 0.000000 0.000000 0.000000 0.000000 0.000000 2.247060 -6.623740 -0.883471 0.202999 2.818756 0.546794 -24.381679 5.548639 3.556999 22.871017 0.984292 -3.183121 0.000000 0.000000 0.000000 0.000000 0.000000 0.000000 -24.141937 2.695640 -5.213936 53.297729 15.961464 14.576795 -33.522566 -4.631966 -22.733086 0.000000 0.000000 0.000000 -18.188429 -4.355154 -3.693622 18.177791 10.204321 0.282163 -1.824810 -3.206502 -6.643852 0.000000 0.000000 0.000000
